<svg width="40" height="40" viewBox="0 0 40 40" fill="none" xmlns="http://www.w3.org/2000/svg">
<path d="M33.2565 22.9949L31.4161 19.9329C31.0089 19.2652 30.6506 17.9785 30.6506 17.1967V14.151C30.6506 8.23883 25.8459 3.43414 19.95 3.43414C14.0378 3.45043 9.23312 8.23883 9.23312 14.151V17.1804C9.23312 17.9622 8.8748 19.2489 8.48391 19.9167L6.64347 22.9786C5.94313 24.1676 5.78026 25.5194 6.22001 26.6921C6.65976 27.881 7.65327 28.8257 8.95624 29.2491C10.7152 29.8355 12.4905 30.2589 14.2984 30.5684C14.4776 30.601 14.6567 30.6173 14.8359 30.6498C15.0639 30.6824 15.3082 30.715 15.5525 30.7475C15.976 30.8127 16.3994 30.8616 16.8392 30.8941C17.8653 30.9919 18.9076 31.0407 19.95 31.0407C20.9761 31.0407 22.0022 30.9919 23.012 30.8941C23.3866 30.8616 23.7612 30.829 24.1195 30.7801C24.4127 30.7475 24.7058 30.715 24.999 30.6661C25.1782 30.6498 25.3573 30.6173 25.5365 30.5847C27.3606 30.2915 29.1685 29.8355 30.9275 29.2491C32.1816 28.8257 33.1425 27.881 33.5986 26.6758C34.0546 25.4543 33.9243 24.1187 33.2565 22.9949ZM21.139 16.3824C21.139 17.0664 20.5852 17.6202 19.9011 17.6202C19.2171 17.6202 18.6633 17.0664 18.6633 16.3824V11.3334C18.6633 10.6493 19.2171 10.0956 19.9011 10.0956C20.5852 10.0956 21.139 10.6493 21.139 11.3334V16.3824Z" fill="#C4C4C4"/>
<path d="M24.5266 32.6857C23.8425 34.575 22.0347 35.9268 19.9174 35.9268C18.6307 35.9268 17.3603 35.4057 16.4645 34.4773C15.9433 33.9887 15.5524 33.3372 15.3244 32.6694C15.5361 32.702 15.7479 32.7183 15.9759 32.7509C16.3505 32.7997 16.7414 32.8486 17.1323 32.8812C18.0606 32.9626 19.0053 33.0115 19.9499 33.0115C20.8783 33.0115 21.8067 32.9626 22.7187 32.8812C23.0608 32.8486 23.4028 32.8323 23.7285 32.7834C23.9891 32.7509 24.2497 32.7183 24.5266 32.6857Z" fill="#C4C4C4"/>
<circle cx="31.3183" cy="8.23887" r="8.14353" fill="#FF5630"/>
<path d="M25.1635 6.48006C25.1635 5.78806 25.2795 5.24806 25.5115 4.86006C25.7475 4.46806 26.1515 4.27206 26.7235 4.27206C27.2955 4.27206 27.6975 4.46806 27.9295 4.86006C28.1655 5.24806 28.2835 5.78806 28.2835 6.48006C28.2835 7.18006 28.1655 7.72806 27.9295 8.12406C27.6975 8.51606 27.2955 8.71206 26.7235 8.71206C26.1515 8.71206 25.7475 8.51606 25.5115 8.12406C25.2795 7.72806 25.1635 7.18006 25.1635 6.48006ZM27.6115 6.48006C27.6115 6.15606 27.5895 5.88206 27.5455 5.65806C27.5055 5.43406 27.4215 5.25206 27.2935 5.11206C27.1655 4.96806 26.9755 4.89606 26.7235 4.89606C26.4715 4.89606 26.2815 4.96806 26.1535 5.11206C26.0255 5.25206 25.9395 5.43406 25.8955 5.65806C25.8555 5.88206 25.8355 6.15606 25.8355 6.48006C25.8355 6.81606 25.8555 7.09806 25.8955 7.32606C25.9355 7.55406 26.0195 7.73806 26.1475 7.87806C26.2795 8.01806 26.4715 8.08806 26.7235 8.08806C26.9755 8.08806 27.1655 8.01806 27.2935 7.87806C27.4255 7.73806 27.5115 7.55406 27.5515 7.32606C27.5915 7.09806 27.6115 6.81606 27.6115 6.48006ZM28.9953 5.43006C29.0193 5.05806 29.1613 4.76806 29.4213 4.56006C29.6853 4.35206 30.0213 4.24806 30.4293 4.24806C30.7093 4.24806 30.9513 4.29806 31.1553 4.39806C31.3593 4.49806 31.5133 4.63406 31.6173 4.80606C31.7213 4.97806 31.7733 5.17206 31.7733 5.38806C31.7733 5.63606 31.7073 5.84806 31.5753 6.02406C31.4433 6.20006 31.2853 6.31806 31.1013 6.37806V6.40206C31.3373 6.47406 31.5213 6.60606 31.6533 6.79806C31.7853 6.98606 31.8513 7.22806 31.8513 7.52406C31.8513 7.76006 31.7973 7.97006 31.6893 8.15406C31.5813 8.33806 31.4213 8.48406 31.2093 8.59206C30.9973 8.69606 30.7433 8.74806 30.4473 8.74806C30.0153 8.74806 29.6593 8.63806 29.3793 8.41806C29.1033 8.19406 28.9553 7.87406 28.9353 7.45806H29.5953C29.6113 7.67006 29.6933 7.84406 29.8413 7.98006C29.9893 8.11206 30.1893 8.17806 30.4413 8.17806C30.6853 8.17806 30.8733 8.11206 31.0053 7.98006C31.1373 7.84406 31.2033 7.67006 31.2033 7.45806C31.2033 7.17806 31.1133 6.98006 30.9333 6.86406C30.7573 6.74406 30.4853 6.68406 30.1173 6.68406H29.9613V6.12006H30.1233C30.4473 6.11606 30.6933 6.06206 30.8613 5.95806C31.0333 5.85406 31.1193 5.69006 31.1193 5.46606C31.1193 5.27406 31.0573 5.12206 30.9333 5.01006C30.8093 4.89406 30.6333 4.83606 30.4053 4.83606C30.1813 4.83606 30.0073 4.89406 29.8833 5.01006C29.7593 5.12206 29.6853 5.26206 29.6613 5.43006H28.9953Z" fill="white"/>
</svg>
