<svg width="34" height="33" viewBox="0 0 34 33" fill="none" xmlns="http://www.w3.org/2000/svg">
<g id="Group 1261152736">
<circle id="Ellipse" cx="17.2543" cy="16.6398" r="16.2871" fill="#C4C4C4"/>
<path id="?" d="M15.2949 18.5019C15.2949 17.6462 15.9481 16.6597 17.2543 15.5421C17.8331 15.0357 18.2216 14.6428 18.4201 14.3634C18.6185 14.0666 18.7177 13.7261 18.7177 13.3419C18.7177 12.8704 18.5689 12.4863 18.2713 12.1894C17.9736 11.8926 17.6016 11.7442 17.1551 11.7442C16.2457 11.7442 15.5595 12.4077 15.0965 13.7348L12.3682 12.4776C12.7155 11.1854 13.3107 10.1988 14.154 9.51779C15.0138 8.83678 16.0473 8.49628 17.2543 8.49628C18.6433 8.49628 19.8007 8.92409 20.7267 9.77972C21.6692 10.6353 22.1405 11.7354 22.1405 13.08C22.1405 13.7959 21.9834 14.442 21.6692 15.0182C21.355 15.5945 20.8259 16.2231 20.0818 16.9041C19.3378 17.5851 18.8582 18.0566 18.6433 18.3185C18.4449 18.5804 18.3457 18.8773 18.3457 19.2091C18.3457 19.2964 18.3622 19.4797 18.3953 19.7591H15.5678C15.3859 19.3226 15.2949 18.9035 15.2949 18.5019ZM14.7493 23.9761C14.7493 23.2951 14.9725 22.7189 15.4189 22.2474C15.8654 21.7759 16.4193 21.5402 17.0807 21.5402C17.7421 21.5402 18.2878 21.7759 18.7177 22.2474C19.1641 22.7189 19.3874 23.2951 19.3874 23.9761C19.3874 24.6746 19.1641 25.2596 18.7177 25.731C18.2878 26.185 17.7421 26.412 17.0807 26.412C16.4193 26.412 15.8654 26.185 15.4189 25.731C14.9725 25.2596 14.7493 24.6746 14.7493 23.9761Z" fill="white"/>
</g>
</svg>
