<svg width="28" height="28" viewBox="0 0 28 28" fill="none" xmlns="http://www.w3.org/2000/svg">
<circle cx="14" cy="14" r="14" fill="#B1C000"/>
<g clip-path="url(#clip0_187_23287)">
<path d="M20.0123 9.81165C19.6234 9.61651 19.1535 9.69253 18.8458 10.0001L16.8672 11.9788L14.9226 7.59974C14.7606 7.23506 14.399 7 14 7C13.6009 7 13.2393 7.23506 13.0774 7.59979L11.1328 11.9788L9.15415 10.0002C8.84655 9.69263 8.37658 9.61656 7.98762 9.81175C7.59881 10.0067 7.37864 10.429 7.44138 10.8595L8.34382 17.057C8.41605 17.5531 8.8414 17.921 9.34277 17.921H18.6572C19.1586 17.921 19.5839 17.5531 19.6561 17.057L20.5586 10.8594C20.6213 10.429 20.4011 10.0067 20.0123 9.81165Z" fill="white"/>
<path d="M18.6572 18.981H9.34275C8.7852 18.981 8.33325 19.4329 8.33325 19.9905C8.33325 20.548 8.7852 21 9.34275 21H18.6572C19.2147 21 19.6667 20.548 19.6667 19.9905C19.6667 19.4329 19.2147 18.981 18.6572 18.981Z" fill="white"/>
</g>
<defs>
<clipPath id="clip0_187_23287">
<rect width="14" height="14" fill="white" transform="translate(7 7)"/>
</clipPath>
</defs>
</svg>
