<svg width="28" height="28" viewBox="0 0 28 28" fill="none" xmlns="http://www.w3.org/2000/svg">
<circle cx="14" cy="14" r="14" fill="#8D6AFF"/>
<g clip-path="url(#clip0_187_23307)">
<path fill-rule="evenodd" clip-rule="evenodd" d="M20.4491 6.15864L15.117 11.3407L16.5064 12.6356L21.8775 7.44103C22.3514 6.46236 21.354 5.64368 20.4491 6.15864ZM13.0363 11.8507C13.0884 11.8119 13.1418 11.7782 13.1952 11.7494L13.2147 11.7394C13.5207 11.5794 13.841 11.5844 14.1769 11.8057L15.1105 12.6781L15.1248 12.6918L15.9842 13.4943C16.3397 13.8417 16.4191 14.2292 16.2225 14.6579L13.703 21.0012C9.12745 20.1225 5.95558 16.9915 5.99985 12.2156C8.50375 12.9181 10.9152 13.1481 13.0363 11.8507Z" fill="white"/>
</g>
<defs>
<clipPath id="clip0_187_23307">
<rect width="16" height="15" fill="white" transform="translate(6 6)"/>
</clipPath>
</defs>
</svg>
