<svg width="28" height="28" viewBox="0 0 28 28" fill="none" xmlns="http://www.w3.org/2000/svg">
<circle cx="14" cy="14" r="14" fill="#2EB5DA"/>
<g clip-path="url(#clip0_187_23296)">
<path d="M10.9103 18.3945L10.4107 17.971C10.3842 17.9407 10.361 17.8976 10.3305 17.8718C10.0442 17.5666 9.73815 17.276 9.47159 16.9563C9.13889 16.5649 8.72673 16.2937 8.24282 16.1335L8.06904 15.9863C8.06806 15.9698 8.07528 15.9525 8.07044 15.9406C7.68864 14.7263 7.68059 13.4851 8.11432 12.2511C8.65146 10.7454 9.42698 9.36358 10.3941 8.08167C10.5395 7.89244 10.672 7.69217 10.8049 7.50013L11.4523 6.73633C11.5033 6.69368 11.5588 6.65472 11.6055 6.60839C12.0936 6.14705 12.6498 5.8607 13.3149 5.80717C13.8526 5.76291 14.3884 5.75611 14.8883 5.97668L15.188 6.23076C15.2489 6.35269 15.3301 6.46835 15.3625 6.59742C15.4473 6.9818 15.5321 7.36619 15.5759 7.7549C15.5988 7.93052 15.5324 8.13211 15.4603 8.30532C15.4026 8.4439 15.299 8.57488 15.1113 8.54084C15.0863 8.5352 15.0506 8.55966 15.0313 8.58239C14.855 8.73761 14.6722 8.78586 14.5086 8.67061C14.3876 8.71649 14.2922 8.77623 14.2054 8.77296C14.0361 8.77011 13.8769 8.72892 13.6917 8.73602C13.4038 8.74981 13.1208 8.36147 13.1446 8.06915C13.0939 8.04964 13.036 8.04746 12.9859 8.03619C12.9275 8.02578 12.8725 8.0026 12.8136 7.98396C12.6872 7.93932 12.599 7.98174 12.5451 8.11577C12.1925 8.98099 11.9479 9.85967 12.0367 10.7943C12.107 11.557 12.0036 12.3131 11.7589 13.051C11.7204 13.1669 11.6858 13.2782 11.6406 13.4196C13.265 12.0932 14.7221 12.1798 16.0355 13.6602C16.545 12.4513 17.662 12.0231 18.5809 12.1456C19.5041 12.2719 20.2487 12.7234 20.8109 13.4342C21.4174 14.1983 21.3995 15.0738 21.0079 15.9763C20.903 16.2233 20.7518 16.4546 20.6175 16.6923L20.1512 17.2424C20.0052 17.353 19.8722 17.4747 19.7214 17.5734C18.8172 18.1821 17.8484 18.2594 16.8489 18.0294C16.736 18.004 16.6545 18.0209 16.5591 18.0806C15.9103 18.4761 15.2229 18.7763 14.4953 18.9565C13.4586 19.2106 12.4516 19.2009 11.4995 18.7299C11.3003 18.6391 11.1111 18.51 10.9103 18.3945Z" fill="white"/>
</g>
<defs>
<clipPath id="clip0_187_23296">
<rect width="14.5794" height="15.2573" fill="white" transform="translate(13.8651 3) rotate(40.2844)"/>
</clipPath>
</defs>
</svg>
